<svg width="24" height="24" viewBox="0 0 24 24" fill="none" xmlns="http://www.w3.org/2000/svg">
<path fill-rule="evenodd" clip-rule="evenodd" d="M11.486 4.76875C10.1759 4.86229 8.91583 5.30996 7.84038 6.06394C6.76493 6.81793 5.9145 7.8499 5.37995 9.04963C4.84539 10.2494 4.64678 11.5718 4.80534 12.8756C4.9639 14.1794 5.47367 15.4157 6.28019 16.4523C7.08672 17.4889 8.1597 18.287 9.38452 18.7612C10.6093 19.2355 11.94 19.3681 13.2343 19.1449C14.5286 18.9217 15.738 18.3511 16.7333 17.494C17.7285 16.637 18.4722 15.5256 18.885 14.2788C17.621 14.8007 16.2206 14.8936 14.8987 14.5433C13.5768 14.193 12.4062 13.4188 11.5665 12.3394C10.7268 11.26 10.2643 9.93498 10.25 8.56749C10.2356 7.20001 10.6702 5.86556 11.487 4.76875M3.25 12.0008C3.24989 10.7397 3.52237 9.49349 4.04877 8.34754C4.57518 7.20159 5.34306 6.18296 6.29983 5.36144C7.25659 4.53992 8.37963 3.93491 9.592 3.58786C10.8044 3.24082 12.0774 3.15993 13.324 3.35075C13.4701 3.37306 13.6064 3.43805 13.7157 3.53755C13.825 3.63704 13.9024 3.76662 13.9383 3.91C13.9742 4.05338 13.967 4.20417 13.9174 4.34343C13.8679 4.4827 13.7784 4.60422 13.66 4.69275C13.1557 5.07126 12.7317 5.5464 12.4129 6.09046C12.0942 6.63452 11.8869 7.23661 11.8032 7.86161C11.7196 8.48661 11.7612 9.12201 11.9256 9.73076C12.0901 10.3395 12.3742 10.9094 12.7612 11.4073C13.1482 11.9051 13.6305 12.3209 14.1799 12.6304C14.7293 12.9398 15.3348 13.1368 15.9612 13.2099C16.5875 13.2829 17.2221 13.2305 17.828 13.0557C18.4338 12.8809 18.9988 12.5872 19.49 12.1918C19.6048 12.0983 19.7446 12.0409 19.8919 12.0268C20.0392 12.0127 20.1874 12.0425 20.3178 12.1124C20.4483 12.1823 20.5551 12.2892 20.6249 12.4197C20.6947 12.5502 20.7243 12.6985 20.71 12.8458C20.4903 15.0807 19.4197 17.1456 17.7199 18.6132C16.0201 20.0809 13.8211 20.8388 11.578 20.7303C9.33487 20.6217 7.21935 19.6549 5.66919 18.03C4.11903 16.4051 3.25289 14.2465 3.25 12.0008Z" fill="black"/>
</svg>
