<svg width="20" height="20" viewBox="0 0 20 20" fill="none" xmlns="http://www.w3.org/2000/svg">
<path d="M8.79136 2.39927L3.82886 5.15427C3.44157 5.37017 3.11915 5.68582 2.89509 6.06845C2.67102 6.45107 2.55349 6.88671 2.5547 7.33011V12.6751C2.55364 13.1184 2.67124 13.5538 2.8953 13.9363C3.11935 14.3188 3.4417 14.6343 3.82886 14.8501L8.79303 17.6059C9.16231 17.8114 9.57793 17.9193 10.0005 17.9193C10.4231 17.9193 10.8387 17.8114 11.208 17.6059L16.1722 14.8509C16.5595 14.635 16.8819 14.3194 17.106 13.9368C17.33 13.5541 17.4476 13.1185 17.4464 12.6751V7.33011C17.4474 6.88685 17.3298 6.45138 17.1058 6.06892C16.8817 5.68646 16.5594 5.37093 16.1722 5.15511L11.208 2.39927C10.8387 2.19379 10.4231 2.08594 10.0005 2.08594C9.57793 2.08594 9.16231 2.19379 8.79303 2.39927H8.79136Z" stroke="#808080"/>
<path d="M16.9419 5.83594L10.0003 10.0059M10.0003 10.0059L3.05859 5.83594M10.0003 10.0059V17.9143" stroke="#808080"/>
</svg>
