<svg width="34" height="35" viewBox="0 0 34 35" fill="none" xmlns="http://www.w3.org/2000/svg">
<g clip-path="url(#clip0_616_61)">
<path d="M9.99971 0.472656H23.9997C29.333 0.472656 33.6663 4.80599 33.6663 10.1393V24.1393C33.6663 26.703 32.6479 29.1618 30.835 30.9746C29.0222 32.7875 26.5634 33.806 23.9997 33.806H9.99971C4.66634 33.806 0.333008 29.4726 0.333008 24.1393V10.1393C0.333008 7.57557 1.35146 5.11681 3.16431 3.30396C4.97716 1.49111 7.43591 0.472656 9.99971 0.472656ZM9.66634 3.80599C8.07504 3.80599 6.54892 4.43813 5.4237 5.56335C4.29848 6.68857 3.66634 8.21469 3.66634 9.80599V24.4726C3.66634 27.7893 6.34967 30.4726 9.66634 30.4726H24.333C25.9243 30.4726 27.4504 29.8405 28.5756 28.7152C29.7009 27.59 30.333 26.0639 30.333 24.4726V9.80599C30.333 6.48932 27.6497 3.80599 24.333 3.80599H9.66634ZM25.7497 6.30599C26.3022 6.30599 26.8321 6.52548 27.2228 6.91619C27.6135 7.30689 27.833 7.83679 27.833 8.38932C27.833 8.94186 27.6135 9.47176 27.2228 9.86246C26.8321 10.2531 26.3022 10.4726 25.7497 10.4726C25.1971 10.4726 24.6672 10.2531 24.2765 9.86246C23.8858 9.47176 23.6663 8.94186 23.6663 8.38932C23.6663 7.83679 23.8858 7.30689 24.2765 6.91619C24.6672 6.52548 25.1971 6.30599 25.7497 6.30599ZM16.9997 8.80599C19.2098 8.80599 21.3294 9.68396 22.8922 11.2467C24.455 12.8095 25.333 14.9291 25.333 17.1393C25.333 19.3494 24.455 21.469 22.8922 23.0318C21.3294 24.5946 19.2098 25.4726 16.9997 25.4726C14.7895 25.4726 12.6699 24.5946 11.1071 23.0318C9.54431 21.469 8.66634 19.3494 8.66634 17.1393C8.66634 14.9291 9.54431 12.8095 11.1071 11.2467C12.6699 9.68396 14.7895 8.80599 16.9997 8.80599ZM16.9997 12.1393C15.6736 12.1393 14.4018 12.6661 13.4641 13.6037C12.5264 14.5414 11.9997 15.8132 11.9997 17.1393C11.9997 18.4654 12.5264 19.7371 13.4641 20.6748C14.4018 21.6125 15.6736 22.1393 16.9997 22.1393C18.3257 22.1393 19.5975 21.6125 20.5352 20.6748C21.4729 19.7371 21.9997 18.4654 21.9997 17.1393C21.9997 15.8132 21.4729 14.5414 20.5352 13.6037C19.5975 12.6661 18.3257 12.1393 16.9997 12.1393Z" fill="white"/>
</g>
<defs>
<clipPath id="clip0_616_61">
<rect width="34" height="34" fill="white" transform="translate(0 0.139648)"/>
</clipPath>
</defs>
</svg>
